<svg xmlns="http://www.w3.org/2000/svg" viewBox="0 0 2831.62 1050.35"><defs><style>.cls-1{fill:#024884;}</style></defs><title>Element 1</title><g id="Ebene_2" data-name="Ebene 2"><g id="Ebene_1-2" data-name="Ebene 1"><path class="cls-1" d="M1050.45,2.07c175.85,0,319.9,143.3,318.2,321.94C1367,498.38,1225.45,639.53,1050,639.53c-177.32,0-320.51-145-318.43-322.72C733.59,144.22,874.13,1.86,1050.45,2.07ZM1080,260.51l-1.56.6c-3.8-3.55-8.12-6.68-11.31-10.71-16.27-20.55-21.14-44-16.48-69.53,2.81-15.39,9.33-29.4,16.51-43.15,1.16-2.2,2-4.55,3.5-7.9-33.74,8.76-58.84,27.45-78.67,53.78-20.34,27-24.76,57.73-21.07,90.48-15.9-18.24-35.54-30.93-57.93-39.71,14.11,22.76,16.37,47,10.53,72.29-3.5,15.14-8.21,29.89-18.57,42-2,2.39-4.67,4.29-7.43,6.77-.88-9.7-1.52-18.31-2.49-26.88s-4.92-16.18-10-23.09a51.31,51.31,0,0,0-20.54-17.06c7.48,14.93,3.18,26.46-5.15,37.87a64.26,64.26,0,0,0-9.51,19.61c-7.93,27.22-8.5,54.79-1,82.23,6.36,23.4,18.15,43.21,39.75,55.83a16.91,16.91,0,0,0,7.93,2.31c14.82.21,29.66.11,44.49.08,1.37,0,2.75-.26,4.85-.47-1.62-2.12-2.69-3.56-3.8-5-17.94-22.95-19.63-59.11-3.78-82.52,6-8.85,13.9-14.91,24.43-16.6,0,5.39-.29,10.54.06,15.64.82,12.24,3,24.15,10.56,34.31,7,9.39,12.94,10.8,21.68,3.21a93.61,93.61,0,0,0,18-21c9.24-14.92,14-31.35,9.94-49.1-2-8.73-5.45-17.13-7.34-25.87-4.42-20.37,5.81-38.2,24.84-44.05a9.35,9.35,0,0,1,.1,2c-2.93,17.11,1.94,27.29,16.56,36.59a183.25,183.25,0,0,1,21.67,16c22.72,19.69,32,43.95,23.87,73.75-6.11,22.42-18.35,41.19-34.18,57.84l-4.67,4.92c2.55.22,4,.45,5.38.45,41.82,0,83.65.05,125.47-.09a16.48,16.48,0,0,0,7.91-2.32c16.16-9.58,27.23-23.83,35.47-40.33,17.19-34.45,22.21-70.92,15.93-108.7-7.29-43.91-28.65-79.38-65.8-104.69-3.87-2.64-8.06-4.79-12.85-7.6a15.05,15.05,0,0,0,.57,2.58A111.26,111.26,0,0,1,1189.75,293c-1.79,17-8.07,31.82-20,44.12-2.58,2.67-5.78,4.76-9.21,7.53,1-9.57,2-18.08,2.66-26.63,1.53-18.69-2.72-35.64-15.42-50-8.82-10-17.61-20-26.25-30.14-8.82-10.35-13.1-22.25-11.52-36,.49-4.35.8-8.73,1.2-13.09l-1.54-1c-5.17,5.5-10.84,10.6-15.4,16.55C1081.67,220.84,1078.06,240,1080,260.51Zm-187.6,275h299c1.5,0,3-.12,4.49,0,3.09.28,4.1-1.13,4.06-4.09-.12-7.83-.33-15.68.07-23.5.26-4.95-1.52-6-6.21-6q-148,.19-296,.11c-1.75,0-3.5.18-5.45.28Zm187.2-410.75c.69.64.9,1,1.18,1.07,20.75,7.14,44.44-5.3,50.23-26.38,3-11.08,2.85-22.32,1.58-33.61-.29-2.63-.81-5.24-1.29-7.85s-1.07-5.15-1.61-7.72C1119.54,79.72,1105.64,106.07,1079.64,124.76Z"/><path class="cls-1" d="M371.16,436.56c-5.83,12.37-11.56,23.4-16.3,34.85-7.64,18.4-12.36,37.6-12.6,57.63-.25,21,5.81,40.32,16.19,58.42a174,174,0,0,0,30.44,38.78c1.29,1.25,2.7,2.36,4.06,3.53l-.39,1.43c-11.2,1.95-22.33,4.73-33.61,5.64-17.89,1.43-35.9,2.57-53.81,2.13a292.48,292.48,0,0,1-122.61-30Q48.23,543.22,9.58,398.44C-.12,361.94-2,324.66,1.85,287,15.07,156.1,110.73,43.2,243.3,11,277,2.76,311.3-.16,345.84,3.43c114.35,11.86,198.77,69.06,254.87,169,2.71,4.82,2.14,7.43-1.69,11.21Q518.8,262.84,438.89,342.34q-14.55,14.43-29.1,28.87c-1.25,1.24-2.43,2.56-3.08,3.24L434.42,395l92.24-90q46.3-45.18,92.66-90.44c2.8,9.72,6.35,20.72,9.11,31.91a306,306,0,0,1,8,95.13c-5.3,75.21-33.5,140.82-84.7,196.28C520,572.28,482.19,598.12,438.92,616c-3.46,1.44-5.89,1.36-8.91-1.25-18.49-16-34.61-33.78-43.67-56.88-8.87-22.59-7.08-45.41.31-67.94,2.74-8.33,6.86-16.19,10.14-24.36.54-1.35.65-3.81-.17-4.62C388.73,453.14,380.59,445.54,371.16,436.56ZM357.83,92.82,230.74,224.89l-37.59-41.32Q106.78,269.92,21.57,355.15c.84.05,2.42.22,4,.22q190,0,380-.13a13,13,0,0,0,8.15-3.46c25.57-25.1,50.93-50.41,76.34-75.66,6.73-6.69,13.44-13.38,20.57-20.48C459.66,201.36,409,147.36,357.83,92.82Zm40.9,420c-1.65,11.43-2.36,22.61,2,33.5,2.68,6.67,8.14,10.16,14.9,11a42,42,0,0,0,13.83-.42C453,552,472.9,526.9,473,501.84a115.1,115.1,0,0,0-14.68-56.36c-18-32.78-43.29-57.37-80.1-67.67-21.22-5.94-43.11-6.21-64.84-3-8.42,1.26-16.65,4.24-24.75,7-4.7,1.63-7.41,5.83-7.84,10.77-.79,9.18,1.66,17.55,8,24.39,4,4.35,8.61,6.28,15.15,4.84,14.47-3.17,29.15-4.74,44.08-2.93,27.56,3.33,48.24,17.58,64.41,39.45,6.37,8.62,12.2,17.43,14.67,28.07,3.51,15.07-3.17,24.45-18.52,25.8C405.45,512.53,402.31,512.61,398.73,512.81Zm-71.73-.6H216.21c-18.58,0-37.85-14.13-43.44-31.82-2.36-7.45-3.9-7.83-9.74-2.38a9.44,9.44,0,0,0-1.73,1.79c-2,3.25-4.67,2.8-6.42.3a64.38,64.38,0,0,1-7.53-13.27c-1.83-4.72-2.39-9.93-3.76-16.08-1.27,2.56-2.17,4.09-2.8,5.71-10.68,27.21-5.52,51.6,13.6,73.16,18.09,20.39,41.46,28.6,68.23,28.46q52.74-.29,105.46-.52a17.14,17.14,0,0,0,2.59-.34c-1.84-7.53-4.5-14.66-5.11-22S326.39,520.46,327,512.21ZM270.4,374.27a24.38,24.38,0,0,0-2.61.68q-50.22,23.32-100.43,46.7a6.63,6.63,0,0,0-2.44,1.65c-9.55,12-12.28,31.34.79,45.69,3.59-2.75,5.8-7.82,11.6-7.61,2,11.11,7.65,19,17.76,23.52a9.18,9.18,0,0,0,8.87-.22c27.33-14.14,54.75-28.11,82.13-42.15,1.21-.62,2.3-1.46,3.84-2.44C267.87,422.65,256.27,402.58,270.4,374.27Zm222.49-20.51.74,1.17H604l-53.35-56.2Z"/><path class="cls-1" d="M1781.9,502q-128.22,0-256.44.1c-4.31,0-6.89-1.18-9.28-4.83-25.46-39-42.72-81.21-49.14-127.41-14.94-107.61,15.65-200.6,92.46-277.38,47-47,104.16-76,170-86C1837.05-9.75,1930.54,20.23,2008,96.7c47.91,47.31,77.12,105.15,87.76,171.78q19.82,124.14-49.25,229.57c-2,3-4,4.06-7.64,4.06Q1910.38,501.95,1781.9,502Zm240-21.44c-1.58-2.65-2.47-4.21-3.43-5.73q-113-180.25-226.14-360.46c-4.52-7.19-8.64-14.12-7.37-23,0-.26-.26-.57-.54-1.11h-9c-.13,2.37.06,4.57-.41,6.62-.86,3.78-1.3,8-3.3,11.11q-116.05,183.06-232.4,366c-1.2,1.89-2.3,3.85-3.94,6.6h6.37c53.32,0,106.64-.08,160,.13,4.68,0,6.19-1.72,7.26-5.81,11-42.12,21.76-84.29,33.23-126.27,11.21-41,23.12-81.82,34.76-122.71a52.7,52.7,0,0,1,2-5.08l1.31.11c2.11,6.77,4.5,13.47,6.3,20.32q30.58,116.64,60.92,233.34c1.11,4.28,2.43,6.14,7.45,6.12,53.65-.24,107.31-.15,161-.15ZM1779.43,83.28l81-15.62c0-.44-.05-.88-.07-1.32l-80.88-21Z"/><path class="cls-1" d="M2428,502.11h-78.79c-.2-2.24-.51-4.14-.51-6.05q0-154.24,0-308.48c0-6.48,0-6.51,6.74-6.51q158,0,316-.09c4.91,0,6.42,1.13,6.42,6.34q-.27,154.5-.13,309v5.59h-78.75v33.37h78.34c.17,1.91.39,3.33.39,4.76,0,16.66,0,33.33.08,50a5.88,5.88,0,0,1-3.37,5.89,319.16,319.16,0,0,1-181.31,43A315,315,0,0,1,2352.16,596c-2.67-1.56-3.57-3.43-3.55-6.42.12-16.33.19-32.67,0-49-.06-4.37,1.62-5.18,5.55-5.16,22.83.16,45.67,0,68.5.16,4.1,0,5.55-1.13,5.43-5.33C2427.79,521.13,2428,512,2428,502.11ZM2653.5,335.58c.19-.43.39-.86.59-1.29l-142.2-140.62L2372.07,334.49l.55,1.15h69.21V555.38h6c44.16,0,88.31-.08,132.46.11,4.93,0,6-1.54,6-6.21q-.22-103.71-.1-207.43v-6.27Z"/><path class="cls-1" d="M2677.33,147.08h-5.59q-158.46,0-316.91.1c-4.66,0-6.31-1-6.27-6,.22-29.49.16-59,0-88.47,0-3.58,1-5.71,4.23-7.56,38.09-21.94,78.84-35.81,122.57-40.82,62.07-7.1,121.3,2.62,177.54,29.91,7.48,3.63,14.73,7.74,21.91,11.92a6.27,6.27,0,0,1,2.72,4.53c.15,31.16.11,62.31.09,93.47C2677.65,145,2677.48,145.78,2677.33,147.08ZM2529.84,86.79l-1.07.38c-.83-1.18-1.69-2.33-2.49-3.52-9.08-13.36-18.09-26.77-27.3-40-1.19-1.72-3.34-3.74-5.17-3.86a174.74,174.74,0,0,0-20.47,0c-1.23.06-3.36,2.25-3.37,3.47-.19,27.65-.12,55.31-.2,83,0,3.25,1.59,3.94,4.33,3.91,6.16-.07,12.33-.15,18.49,0,3.63.1,4.47-1.56,4.43-4.85-.13-12.33-.06-24.66,0-37,0-1.57.16-3.15.31-6.07,1.85,2.64,3,4.21,4.07,5.8,8.71,12.81,17.39,25.63,26.17,38.39,1,1.4,2.51,3.35,3.85,3.41,8.11.31,16.23.15,24.4.15V40h-25.94Z"/><path class="cls-1" d="M1545.63,535.73h470.43c-50,53.45-109.84,87-181,99.15C1716.41,655.06,1610.83,608.15,1545.63,535.73Z"/><path class="cls-1" d="M2314.81,502h-27.57c-10.33,0-20.67-.22-31,.11-4.06.13-6.25-1.39-8.38-4.62-25.12-38.19-41.78-79.68-49-124.88q-15.42-97,25.3-186.5c1.65-3.62,3.59-5.19,7.78-5.16q38.48.3,77,0c4.46,0,6,1.13,5.95,5.84q-.19,154.95-.1,309.9Z"/><path class="cls-1" d="M2756.09,181.07c12.66,0,25.33.14,38-.07,4-.07,6.2,1.07,8,4.93,14.69,32.17,24.26,65.69,27.8,100.93q11.52,114.54-51.47,210.87c-2,3.13-4.13,4.45-8,4.4-17.65-.24-35.32-.29-53,0-4.73.08-5.84-1.41-5.83-5.88q.2-78.22.08-156.44,0-76,0-151.95c0-6.78,0-6.79,6.94-6.8Z"/><path class="cls-1" d="M1460.8,903.43v6.44c0,43.16-.07,86.32.1,129.48,0,4.68-1.05,6.45-6,6.28-10.65-.36-21.33-.22-32-.05-3.78.06-5.29-1-5.28-5.08q.15-101.73,0-203.47c0-4.12,1.66-5.06,5.35-5,12,.14,24,.22,36,0,3.92-.09,5.92,1.48,7.86,4.62q41.31,66.64,82.83,133.16a16.57,16.57,0,0,0,4.2,4.91V832.54c2.51-.19,4.28-.44,6.05-.44,10.66,0,21.33.15,32-.11,4.44-.11,5.93,1.06,5.92,5.81q-.26,88.74-.11,177.47c0,8.5-.19,17,.08,25.5.12,3.83-1.25,4.86-4.87,4.81-12.16-.16-24.33-.23-36.49,0-4.07.09-6.26-1.45-8.32-4.78q-38.24-61.8-76.7-123.45-4.55-7.27-9.05-14.58Z"/><path class="cls-1" d="M435.67,938.38c0-33.32.1-66.64-.11-100,0-5.11,1.51-6.5,6.51-6.45,31,.3,62-.39,92.95.58C578.61,833.91,609.58,859,620,901.4c8,32.85,6.6,65.51-8.53,96.37-13.4,27.34-36.2,42.37-66.17,46.28-9,1.19-18.25,1.07-27.39,1.12-25.49.13-51-.08-76.47.16-4.78,0-5.83-1.57-5.81-6C435.73,1005.69,435.67,972,435.67,938.38Zm46.55-67.47v135.62c15,0,29.65.14,44.28,0,21.93-.27,39.55-12.74,46.54-33.56,7.79-23.2,6.91-46.59-1.19-69.49-5.76-16.28-18-26.16-34.61-30.17C519.19,868.92,500.83,871.85,482.22,870.91Z"/><path class="cls-1" d="M2321.51,1045.53h-38.6c-8,0-8.43.06-9.61-7.91-1.78-12.16-2.67-24.45-4.26-36.64a126.28,126.28,0,0,0-3.56-18.55c-3.48-12.26-12.26-19.41-24.64-20-18.42-.84-36.91-.21-56.16-.21v6c0,24-.1,48,.09,72,0,4.14-1.16,5.47-5.32,5.39-12.33-.24-24.66-.15-37,0-3.1,0-4.36-.84-4.36-4.25q.15-103,.08-205.92c0-.81.13-1.61.22-2.79a41.68,41.68,0,0,1,4.46-.5c37.32,0,74.64-.27,112,.07,23.44.2,42.38,9.36,54.09,30.56,12.35,22.35,9.22,61.45-17.36,76.85-2.84,1.65-5.75,3.19-8.64,4.78.27.53.35,1,.55,1,17.91,6,25.34,20,28.12,37.27,1.3,8,1.54,16.2,2.13,24.32C2314.66,1019.9,2315.44,1032.84,2321.51,1045.53Zm-136.6-116c21.19-.53,41.8-.56,62.34-1.78,9.11-.55,16.23-6.1,19.58-15a40.7,40.7,0,0,0,.57-27.41c-3.48-10.76-12.94-17.06-26-17.23-17.82-.23-35.64-.09-53.47-.08a19.8,19.8,0,0,0-3,.49Z"/><path class="cls-1" d="M2784.17,832.07c12.89,0,25,0,37.17,0,9.34,0,9.34,0,9.34,9.21,0,66-.07,132,.13,198,0,5.17-1.43,6.51-6.41,6.37-11.65-.33-23.33-.26-35,0-4.12.08-5.36-1.15-5.34-5.35.19-26.83.1-53.66.1-80.49v-6.41c-2.2-.1-4-.26-5.74-.26-25.16,0-50.33.1-75.49-.12-4.73,0-6.28,1.17-6.24,6.08.23,26.83,0,53.67.22,80.5,0,5-1.55,6.19-6.25,6.06-11.49-.3-23-.22-34.49,0-4,.06-5.59-1-5.58-5.3q.15-101.49,0-203c0-4.3,1.63-5.36,5.59-5.29,11.49.18,23,.27,34.49,0,4.72-.13,6.29,1.15,6.24,6.09-.25,23.49,0,47-.21,70.49,0,4.61,1.36,6,5.95,5.93q38-.3,76,0c4.36,0,5.66-1.12,5.62-5.58-.22-23.49-.1-47-.1-70.49Z"/><path class="cls-1" d="M46.52,920.79c8.13-8.57,15.22-16,22.26-23.49q29.28-31.09,58.61-62.15a9.43,9.43,0,0,1,5.9-2.93c17.16-.22,34.32-.13,51.48-.11a18.35,18.35,0,0,1,2.58.45c-1.21,1.43-2,2.55-3,3.54-25.18,25.47-50.31,51-75.66,76.31-3.07,3.07-2.89,4.9-.53,8.22q42.46,59.61,84.64,119.42c1,1.35,1.86,2.74,3.35,5-2.35.21-4,.49-5.71.49-15.66,0-31.33-.09-47,.1-3.75.05-6-1.1-8.14-4.28q-29.16-43.9-58.63-87.6c-.9-1.35-1.92-2.63-2.49-3.41-9,8.54-17.83,16.8-26.36,25.4-1.35,1.36-1.61,4.25-1.62,6.44-.12,19.16-.19,38.33,0,57.49,0,4.55-1.33,6.09-5.94,6-11.66-.28-23.33-.26-35,0C1,1045.7,0,1044.2,0,1040.15q.18-101.48,0-203c0-3.89,1-5.26,5-5.19,11.82.2,23.66.24,35.49,0,4.42-.1,5.71,1.39,5.68,5.73-.17,25.16-.09,50.33-.07,75.49C46.13,915.25,46.34,917.3,46.52,920.79Z"/><path class="cls-1" d="M815.06,1006.42c0,12.62.07,24.26-.14,35.9,0,1-1.9,2-3,2.82-.45.32-1.3.07-2,.07H658c-1.32,0-2.65-.12-4.37-.2V832.58c1.66-.16,3.57-.49,5.47-.49,49.31,0,98.63,0,148-.11,4.63,0,5.92,1.42,5.78,6-.32,10.79-.1,21.6-.1,32.91H700.12c-.18,1.9-.42,3.32-.42,4.75,0,12.33.14,24.66-.11,37-.09,4.08,1.35,5,5.17,5,30.82-.12,61.65-.07,92.47-.07h6.12v35.43c-1.93.09-3.86.26-5.78.26-30.49,0-61,.11-91.47-.09-4.84,0-6.68,1-6.55,6.29.37,15.45.13,30.92.13,47Z"/><path class="cls-1" d="M1226.11,1044.88v-5.73q0-100.47-.11-200.92c0-4.67,1-6.28,6-6.26q74,.25,147.94,0c4.5,0,6,1.19,5.87,5.88-.36,10.79-.11,21.61-.11,33H1272.93v46.6h5.92c30.65,0,61.3.08,92-.09,4.14,0,5.52,1.15,5.38,5.32-.27,8.49-.23,17,0,25.48.11,3.94-1.25,5.09-5.17,5.07-30.82-.14-61.64,0-92.46-.19-4.91,0-6.13,1.47-6,6.19.28,15.47.1,31,.1,47H1387.4v38.55Z"/><path class="cls-1" d="M1714,1044.86c0-11.8-.12-23.26.12-34.71,0-1.71,1.53-3.59,2.75-5q53.92-64.67,107.93-129.26c1-1.24,2-2.56,3.5-4.56H1723V860c0-7.49.27-15-.1-22.49-.23-4.58,1.53-5.59,5.74-5.55,19.16.18,38.32.08,57.48.08,32.83,0,65.65.08,98.47-.1,4.64,0,6.48,1,6.24,6-.43,9,.06,18-.24,27a12.54,12.54,0,0,1-2.58,7.12q-53.84,64.74-107.89,129.3c-1.13,1.35-2.12,2.82-3.73,5h116.92v38.49Z"/><path class="cls-1" d="M1964.61,832.43v6.72c0,42.32,0,84.63.07,127a75.58,75.58,0,0,0,1.52,16.33c3.93,17.46,13.92,26.45,33.78,28.53a90.88,90.88,0,0,0,28.65-1.91c14.75-3.28,23.24-15.15,24.44-31.55.53-7.29.85-14.62.87-21.93q.12-58.73-.07-117.45c0-4.85,1.36-6.29,6.16-6.16,11.66.32,23.33.24,35,0,3.94-.06,5.17,1.33,5.16,5.21-.21,45.65.24,91.3-.56,136.93-.73,41.75-28.76,70.88-70.3,75-20,2-39.85,2-59.29-4-29.36-9.15-48.63-32.94-50.81-63.74-1-14.26-1-28.61-1.07-42.91-.14-33.49.06-67-.17-100.46,0-5,1.56-6.16,6.22-6,11.49.29,23,.08,34.49.11C1960.47,832.09,1962.26,832.28,1964.61,832.43Z"/><path class="cls-1" d="M2621.59,902.73a30,30,0,0,1-3.61.46c-12.33,0-24.66-.07-37,.09-2.89,0-4.21-1-4.82-3.69-4.54-20.15-27.12-37.61-56-33-20,3.18-33.81,14.66-41.12,33.14-10.47,26.45-10.83,53.33.51,79.65,12.84,29.78,42.58,37.1,66.33,29.82,19.53-6,28.33-21.54,32.06-40.41.82-4.17,2.2-5.38,6.38-5.29,12.95.29,25.91.11,40.28.11-2.15,9.24-3.5,17.93-6.2,26.17-11.74,35.88-43.71,59.18-81.57,60.5-24.07.83-46.74-3.28-66.94-17.1-24.21-16.57-37.39-40.3-42.48-68.54-5.22-28.87-2.51-57.15,10.93-83.61,15.33-30.17,40.13-47.77,73.65-52.56,27.24-3.89,53.14-.25,76.22,15.92,19,13.34,29.35,32.17,33.36,54.75A22.8,22.8,0,0,1,2621.59,902.73Z"/><path class="cls-1" d="M418.74,1045.53h-21c-7.5,0-15-.17-22.49.06-3.39.11-5-1.06-6.11-4.3-4.25-13.11-8.82-26.12-13.1-39.22-1-2.94-2.33-4.15-5.61-4.13q-36,.22-72,0c-3.38,0-4.93,1-6,4.27-4.42,13.24-9.11,26.38-13.92,39.49-.55,1.51-2.42,3.59-3.72,3.61-14.46.26-28.93.16-44.18.16.59-2.06.91-3.58,1.46-5q38.52-101.61,77-203.25c1.49-4,3.42-5.31,7.56-5.23,12.82.24,25.65.15,38.48,0,2.83,0,4.45.74,5.52,3.63q38.44,103.23,77.06,206.4C418,1042.82,418.17,1043.62,418.74,1045.53ZM315.46,884.92H314c-9.19,26-18.37,51.9-27.72,78.29h56C333.24,936.76,324.35,910.84,315.46,884.92Z"/><path class="cls-1" d="M1008.68,871H944.74v174c-2.44.17-4.37.43-6.3.44q-16.74,0-33.48,0c-6.85,0-6.85,0-6.85-6.67q0-80.46,0-160.92v-6.65h-64c0-12.63-.06-24.56.12-36.5,0-.89,1.62-2.21,2.72-2.54,1.54-.45,3.3-.17,5-.17h159.92c6.82,0,6.82,0,6.83,6.71Z"/><path class="cls-1" d="M1203.81,871h-64.13v6.79c0,53.81-.08,107.62.13,161.43,0,5.18-1.45,6.51-6.41,6.37-11.48-.33-23-.28-34.48,0-4.46.1-5.88-1.13-5.87-5.84.18-54.14.12-108.28.12-162.42v-6.1h-64c0-12.57-.06-24.5.12-36.44,0-.9,1.57-2.14,2.66-2.58s2.63-.16,4-.16q80.46,0,160.93,0c6.94,0,6.94,0,7,7.15Z"/><path class="cls-1" d="M1424.3,637.78h-16.82V0h16.82Z"/><path class="cls-1" d="M676.33.8h16V636.67h-16Z"/><path class="cls-1" d="M2155.31,636.79h-15.93V.89h15.93Z"/><path class="cls-1" d="M2350.17,938.78c0-33.82.07-67.64-.09-101.46,0-4.22,1.26-5.41,5.35-5.33,12.16.22,24.32.19,36.48,0,3.66,0,4.85,1,4.84,4.84q-.15,102,0,203.92c0,3.83-1.25,4.86-4.87,4.81-12.16-.16-24.32-.21-36.48,0-4.14.08-5.34-1.17-5.32-5.35C2350.24,1006.43,2350.17,972.61,2350.17,938.78Z"/><path class="cls-1" d="M2314.52,146.83h-68.33a319.39,319.39,0,0,1,68.33-75.25Z"/><path class="cls-1" d="M2780.37,147.08c-22.45,0-43.77,0-65.09-.13-1.2,0-3.4-1.82-3.41-2.8-.12-23.48,0-47,.08-70.46,0-.24.37-.49,1-1.22A318,318,0,0,1,2780.37,147.08Z"/><path class="cls-1" d="M1958.28,807.05V773.93a14.36,14.36,0,0,1,3.23-.79c10.82-.06,21.64,0,32.46-.08,3,0,4.19,1.1,4.16,4.11-.1,8.66.08,17.32-.14,26,0,1.32-1.58,3.73-2.46,3.74C1983.26,807.13,1971,807.05,1958.28,807.05Z"/><path class="cls-1" d="M2059.78,806.84h-39.65c0-10.48-.07-20.72.12-31a3.74,3.74,0,0,1,2.58-2.62q17-.28,33.89,0c1,0,2.9,1.83,2.93,2.83C2059.87,786.18,2059.78,796.29,2059.78,806.84Z"/><path class="cls-1" d="M2314.49,536V569.7c-13.33-10-24.78-21.29-36.37-33.75Z"/><path class="cls-1" d="M2749,536.2l-36.27,34a19.25,19.25,0,0,1-1-3.58c-.05-9,0-18-.06-27,0-2.79.67-4.25,3.91-4.19,10.14.16,20.29,0,30.43.07A23.64,23.64,0,0,1,2749,536.2Z"/></g></g></svg>